# xmcd
# 
# Track frame offsets:
#     150
#     36470
#     60162
#     82325
#     114975
#     157985
#     183472
#     215277
#     235725
#     259905
#     279360
#     302387
# 
# Disc length: 4309
# 
# Revision: 5
# Processed by: cddbd v1.5.2PL0 Copyright (c) Steve Scherf et al.
# Submitted via: fre:ac v1.0.31
# 
DISCID=9a10d30c
DTITLE=Elisha La'Verne - Greatest Hits and Remixes [CD2]
DYEAR=2001
DGENRE=Soul
TTITLE0=I May Be Single Ocean Breeze Mix
TTITLE1=I'm Not Dreaming N43' Remix
TTITLE2=Give Me A Reason Glant Swing Remix
TTITLE3=I Don't Mind Pacific Oceane Breeze Mix
TTITLE4=You Are The One Da 12"
TTITLE5=Change Your Way Gata's Extended Club Mix
TTITLE6=So Very Hot Urban Star 2000 mix
TTITLE7=I May Be Single 2B3 R&B Mix
TTITLE8=I'm Not Dreaming Giant Swing Remix
TTITLE9=You Are The One Giant Swing Mix
TTITLE10=Change Your Way Maestro T "Change Your Beat" Mix
TTITLE11=Creepin' Out Full Crew Mix
EXTD=
EXTT0=
EXTT1=
EXTT2=
EXTT3=
EXTT4=
EXTT5=
EXTT6=
EXTT7=
EXTT8=
EXTT9=
EXTT10=
EXTT11=
PLAYORDER=
